<svg width="38" height="37" viewBox="0 0 38 37" fill="none" xmlns="http://www.w3.org/2000/svg">
<path d="M8.77036 12.8542C8.81724 12.0778 8.87415 11.2969 8.93321 10.521C8.9711 10.0428 9.06343 9.57314 9.00173 9.0859C8.984 8.9515 8.87025 8.80943 8.95926 8.68689L8.95782 8.69058C8.94296 8.5488 8.90016 8.40464 8.9204 8.26805C8.98987 7.75119 8.97483 7.19714 9.11233 6.70681C9.11594 6.68697 9.0823 6.65686 9.08521 6.62825C9.10545 6.49166 9.20498 6.00351 9.22832 5.68965C9.28589 4.95993 9.37139 4.2326 9.73489 3.5329C9.79021 3.42273 10.2279 1.85531 11.0919 1.94565C11.9947 2.04256 12.0972 3.59961 12.0382 3.79333C11.9007 4.26243 11.6379 4.72514 11.7397 5.21528C11.8878 5.93592 11.6841 6.61719 11.6502 7.31789C11.6193 7.94751 11.501 8.56856 11.4787 9.19728C11.4585 9.78861 11.5853 10.3947 11.5093 10.9812C11.4441 11.487 11.1605 11.9714 11.0201 12.4691C10.9862 12.5876 11.1308 12.746 11.1012 12.8747C11.0767 12.9799 11.0514 13.1612 10.9624 13.2625C10.9244 13.3072 10.8792 13.3491 10.9056 13.3976C11.0293 13.62 10.6115 15.2845 9.56127 15.164C8.53244 15.052 8.73078 13.5272 8.77036 12.8542Z" fill="#001651"/>
<path d="M16.5906 18.3329C17.0544 17.8608 17.5205 17.3971 17.9922 16.9335C18.2815 16.6516 18.6076 16.4089 18.8313 16.0514C18.8912 15.9531 18.8881 15.782 19.0242 15.765C19.0924 15.6641 19.1396 15.5408 19.2286 15.4679C19.5651 15.1785 19.8582 14.8139 20.2277 14.5885C20.2419 14.5804 20.2329 14.5361 20.2502 14.5199C20.3421 14.4442 20.6795 14.1962 20.8732 14.0092C21.3186 13.5755 21.7796 13.1641 22.4241 12.9599C22.525 12.9285 23.7015 12.2094 24.2812 12.8619C24.8818 13.5368 24.097 14.6157 23.9521 14.7042C23.5944 14.9133 23.1471 15.0325 22.9523 15.4209C22.6635 15.9869 22.1386 16.2897 21.7292 16.7212C21.3604 17.1094 20.9314 17.4275 20.5708 17.8186C20.2307 18.1852 19.9873 18.6664 19.6103 18.9938C19.2824 19.275 18.8131 19.3939 18.4379 19.6248C18.347 19.6784 18.368 19.8801 18.274 19.9419C18.197 19.993 18.0792 20.0931 17.963 20.0966C17.9105 20.0985 17.8527 20.0947 17.8449 20.1442C17.8093 20.3726 16.5963 21.1628 15.8991 20.3676C15.2064 19.5946 16.1877 18.7425 16.5906 18.3329Z" fill="#001651"/>
<path d="M21.399 26.5505C22.2309 26.5383 23.065 26.5334 23.8963 26.5334C24.4064 26.5326 24.9132 26.5926 25.4275 26.4907C25.5678 26.4629 25.7134 26.3377 25.8515 26.4184L25.8477 26.4194C25.9966 26.3932 26.1469 26.3426 26.2966 26.3481C26.8525 26.3782 27.4418 26.3229 27.9715 26.4204C27.9926 26.4224 28.0234 26.3857 28.0532 26.3892C28.2002 26.3995 28.7232 26.4589 29.0645 26.4579C29.847 26.4598 30.6253 26.4907 31.3912 26.7968C31.5112 26.8427 33.2065 27.1609 33.1566 28.03C33.101 28.9366 31.4476 29.1578 31.2375 29.1136C30.7279 29.0144 30.2228 28.7861 29.7054 28.9208C28.9442 29.1247 28.2051 28.9708 27.4577 28.991C26.7841 29.0103 26.1168 28.9358 25.4453 28.9625C24.814 28.9857 24.172 29.1598 23.5423 29.1306C22.9999 29.1047 22.4695 28.8596 21.9301 28.7569C21.8039 28.7328 21.6417 28.8866 21.5013 28.8705C21.3859 28.8553 21.1929 28.8421 21.0835 28.7613C21.0366 28.7267 20.9877 28.6846 20.9347 28.7156C20.7033 28.8572 18.9089 28.567 18.9791 27.5084C19.0414 26.4801 20.6782 26.5632 21.399 26.5505Z" fill="#001651"/>
</svg>
